<?xml version="1.0" encoding="UTF-8" standalone="no"?>
<svg
   xmlns:dc="http://purl.org/dc/elements/1.1/"
   xmlns:cc="http://creativecommons.org/ns#"
   xmlns:rdf="http://www.w3.org/1999/02/22-rdf-syntax-ns#"
   xmlns:svg="http://www.w3.org/2000/svg"
   xmlns="http://www.w3.org/2000/svg"
   xmlns:sodipodi="http://sodipodi.sourceforge.net/DTD/sodipodi-0.dtd"
   xmlns:inkscape="http://www.inkscape.org/namespaces/inkscape"
   height="297mm"
   version="1.2"
   width="210mm"
   viewBox="0 0 2100 2970"
   id="svg340"
   sodipodi:docname="plate graphic.svg"
   inkscape:version="1.0.2 (e86c870879, 2021-01-15)">
  <metadata
     id="metadata344">
    <rdf:RDF>
      <cc:Work
         rdf:about="">
        <dc:format>image/svg+xml</dc:format>
        <dc:type
           rdf:resource="http://purl.org/dc/dcmitype/StillImage" />
      </cc:Work>
    </rdf:RDF>
  </metadata>
  <sodipodi:namedview
     pagecolor="#ffffff"
     bordercolor="#666666"
     borderopacity="1"
     objecttolerance="10"
     gridtolerance="10"
     guidetolerance="10"
     inkscape:pageopacity="0"
     inkscape:pageshadow="2"
     inkscape:window-width="2524"
     inkscape:window-height="1411"
     id="namedview342"
     showgrid="false"
     inkscape:zoom="0.70710678"
     inkscape:cx="771.73442"
     inkscape:cy="595.17912"
     inkscape:window-x="1080"
     inkscape:window-y="1080"
     inkscape:window-maximized="1"
     inkscape:current-layer="layer4" />
  <title
     id="title268">FreeCAD SVG Export</title>
  <desc
     id="desc270">Drawing page: Page001 exported from FreeCAD document: Unnamed3</desc>
  <defs
     id="defs272">
    <filter
       style="color-interpolation-filters:sRGB;"
       inkscape:label="Invert"
       id="filter348">
      <feColorMatrix
         values="1 0 0 0 0 0 1 0 0 0 0 0 1 0 0 -0.21 -0.72 -0.07 2 0 "
         result="fbSourceGraphic"
         id="feColorMatrix346" />
      <feColorMatrix
         result="fbSourceGraphicAlpha"
         in="fbSourceGraphic"
         values="0 0 0 -1 0 0 0 0 -1 0 0 0 0 -1 0 0 0 0 1 0"
         id="feColorMatrix350" />
      <feColorMatrix
         id="feColorMatrix352"
         values="1 0 0 0 0 0 1 0 0 0 0 0 1 0 0 -0.21 -0.72 -0.07 2 0 "
         result="fbSourceGraphic"
         in="fbSourceGraphic" />
      <feColorMatrix
         result="fbSourceGraphicAlpha"
         in="fbSourceGraphic"
         values="0 0 0 -1 0 0 0 0 -1 0 0 0 0 -1 0 0 0 0 1 0"
         id="feColorMatrix354" />
      <feColorMatrix
         id="feColorMatrix356"
         type="hueRotate"
         values="180"
         result="color1"
         in="fbSourceGraphic" />
      <feColorMatrix
         id="feColorMatrix358"
         values="-1 0 0 0 1 0 -1 0 0 1 0 0 -1 0 1 -0.21 -0.72 -0.07 2 0 "
         result="fbSourceGraphic" />
      <feColorMatrix
         result="fbSourceGraphicAlpha"
         in="fbSourceGraphic"
         values="0 0 0 -1 0 0 0 0 -1 0 0 0 0 -1 0 0 0 0 1 0"
         id="feColorMatrix360" />
      <feColorMatrix
         id="feColorMatrix362"
         type="hueRotate"
         values="180"
         result="color1"
         in="fbSourceGraphic" />
      <feColorMatrix
         id="feColorMatrix364"
         values="-1 0 0 0 1 0 -1 0 0 1 0 0 -1 0 1 -0.21 -0.72 -0.07 2 0 "
         result="fbSourceGraphic" />
      <feColorMatrix
         result="fbSourceGraphicAlpha"
         in="fbSourceGraphic"
         values="0 0 0 -1 0 0 0 0 -1 0 0 0 0 -1 0 0 0 0 1 0"
         id="feColorMatrix366" />
      <feColorMatrix
         id="feColorMatrix368"
         type="hueRotate"
         values="180"
         result="color1"
         in="fbSourceGraphic" />
      <feColorMatrix
         id="feColorMatrix370"
         values="-1 0 0 0 1 0 -1 0 0 1 0 0 -1 0 1 -0.21 -0.72 -0.07 2 0 "
         result="fbSourceGraphic" />
      <feColorMatrix
         result="fbSourceGraphicAlpha"
         in="fbSourceGraphic"
         values="0 0 0 -1 0 0 0 0 -1 0 0 0 0 -1 0 0 0 0 1 0"
         id="feColorMatrix372" />
      <feColorMatrix
         id="feColorMatrix374"
         type="hueRotate"
         values="180"
         result="color1"
         in="fbSourceGraphic" />
      <feColorMatrix
         id="feColorMatrix376"
         values="-1 0 0 0 1 0 -1 0 0 1 0 0 -1 0 1 -0.21 -0.72 -0.07 2 0 "
         result="fbSourceGraphic" />
      <feColorMatrix
         result="fbSourceGraphicAlpha"
         in="fbSourceGraphic"
         values="0 0 0 -1 0 0 0 0 -1 0 0 0 0 -1 0 0 0 0 1 0"
         id="feColorMatrix378" />
      <feColorMatrix
         id="feColorMatrix380"
         type="hueRotate"
         values="180"
         result="color1"
         in="fbSourceGraphic" />
      <feColorMatrix
         id="feColorMatrix382"
         values="-1 0 0 0 1 0 -1 0 0 1 0 0 -1 0 1 -0.21 -0.72 -0.07 2 0 "
         result="fbSourceGraphic" />
      <feColorMatrix
         result="fbSourceGraphicAlpha"
         in="fbSourceGraphic"
         values="0 0 0 -1 0 0 0 0 -1 0 0 0 0 -1 0 0 0 0 1 0"
         id="feColorMatrix384" />
      <feColorMatrix
         id="feColorMatrix386"
         type="hueRotate"
         values="180"
         result="color1"
         in="fbSourceGraphic" />
      <feColorMatrix
         id="feColorMatrix388"
         values="-1 0 0 0 1 0 -1 0 0 1 0 0 -1 0 1 -0.21 -0.72 -0.07 2 0 "
         result="fbSourceGraphic" />
      <feColorMatrix
         result="fbSourceGraphicAlpha"
         in="fbSourceGraphic"
         values="0 0 0 -1 0 0 0 0 -1 0 0 0 0 -1 0 0 0 0 1 0"
         id="feColorMatrix390" />
      <feColorMatrix
         id="feColorMatrix392"
         type="hueRotate"
         values="180"
         result="color1"
         in="fbSourceGraphic" />
      <feColorMatrix
         id="feColorMatrix394"
         values="-1 0 0 0 1 0 -1 0 0 1 0 0 -1 0 1 -0.21 -0.72 -0.07 2 0 "
         result="fbSourceGraphic" />
      <feColorMatrix
         result="fbSourceGraphicAlpha"
         in="fbSourceGraphic"
         values="0 0 0 -1 0 0 0 0 -1 0 0 0 0 -1 0 0 0 0 1 0"
         id="feColorMatrix396" />
      <feColorMatrix
         id="feColorMatrix398"
         type="hueRotate"
         values="180"
         result="color1"
         in="fbSourceGraphic" />
      <feColorMatrix
         id="feColorMatrix400"
         values="-1 0 0 0 1 0 -1 0 0 1 0 0 -1 0 1 -0.21 -0.72 -0.07 2 0 "
         result="fbSourceGraphic" />
      <feColorMatrix
         result="fbSourceGraphicAlpha"
         in="fbSourceGraphic"
         values="0 0 0 -1 0 0 0 0 -1 0 0 0 0 -1 0 0 0 0 1 0"
         id="feColorMatrix458" />
      <feColorMatrix
         id="feColorMatrix460"
         type="hueRotate"
         values="180"
         result="color1"
         in="fbSourceGraphic" />
      <feColorMatrix
         id="feColorMatrix462"
         values="-1 0 0 0 1 0 -1 0 0 1 0 0 -1 0 1 -0.21 -0.72 -0.07 2 0 "
         result="fbSourceGraphic" />
      <feColorMatrix
         result="fbSourceGraphicAlpha"
         in="fbSourceGraphic"
         values="0 0 0 -1 0 0 0 0 -1 0 0 0 0 -1 0 0 0 0 1 0"
         id="feColorMatrix464" />
      <feColorMatrix
         id="feColorMatrix466"
         type="hueRotate"
         values="180"
         result="color1"
         in="fbSourceGraphic" />
      <feColorMatrix
         id="feColorMatrix468"
         values="-1 0 0 0 1 0 -1 0 0 1 0 0 -1 0 1 -0.21 -0.72 -0.07 2 0 "
         result="fbSourceGraphic" />
      <feColorMatrix
         result="fbSourceGraphicAlpha"
         in="fbSourceGraphic"
         values="0 0 0 -1 0 0 0 0 -1 0 0 0 0 -1 0 0 0 0 1 0"
         id="feColorMatrix470" />
      <feColorMatrix
         id="feColorMatrix472"
         type="hueRotate"
         values="180"
         result="color1"
         in="fbSourceGraphic" />
      <feColorMatrix
         id="feColorMatrix474"
         values="-1 0 0 0 1 0 -1 0 0 1 0 0 -1 0 1 -0.21 -0.72 -0.07 2 0 "
         result="color2" />
    </filter>
  </defs>
  <g
     inkscape:groupmode="layer"
     id="layer4"
     inkscape:label="Layer 2"
     style="display:inline">
    <rect
       id="rect454"
       width="883.34082"
       height="487.94348"
       x="271.39685"
       y="112.59139"
       style="display:inline;stroke-width:2.87057" />
  </g>
  <g
     inkscape:groupmode="layer"
     id="layer3"
     inkscape:label="Layer 1"
     style="display:inline">
    <g
       id="Page001"
       transform="translate(236.11068,93.570685)"
       style="filter:url(#filter348)">
      <g
         stroke="#000000"
         stroke-linejoin="bevel"
         fill="none"
         stroke-linecap="square"
         id="DrawingContent"
         stroke-width="1"
         fill-rule="evenodd">
        <g
           stroke="none"
           fill="none"
           font-weight="400"
           font-style="normal"
           font-family="'Noto Sans'"
           transform="matrix(10.0599,0,0,-9.65647,487.68,479.751)"
           font-size="35.2778px"
           id="g276">
          <path
             vector-effect="none"
             d="m 25.4558,25.4558 c -14.0588,14.0589 -36.8527,14.0589 -50.9116,0"
             fill-rule="evenodd"
             id="path274" />
        </g>
        <g
           stroke="#000000"
           stroke-opacity="1"
           stroke-linejoin="miter"
           fill="none"
           stroke-miterlimit="4"
           font-weight="400"
           font-style="normal"
           font-family="'Noto Sans'"
           stroke-linecap="butt"
           stroke-width="0.2"
           transform="matrix(10.0599,0,0,-9.65647,487.68,479.751)"
           font-size="35.2778px"
           id="g280">
          <path
             vector-effect="none"
             d="m 25.4558,25.4558 c -14.0588,14.0589 -36.8527,14.0589 -50.9116,0"
             fill-rule="evenodd"
             id="path278" />
        </g>
        <g
           stroke="none"
           fill="none"
           font-weight="400"
           font-style="normal"
           font-family="'Noto Sans'"
           transform="matrix(10.0599,0,0,-9.65647,487.68,479.751)"
           font-size="35.2778px"
           id="g284">
          <path
             vector-effect="none"
             d="m 25.8094,25.8094 c -14.2541,14.2541 -37.3647,14.2541 -51.6188,0"
             fill-rule="evenodd"
             id="path282" />
        </g>
        <g
           stroke="#000000"
           stroke-opacity="1"
           stroke-linejoin="miter"
           fill="none"
           stroke-miterlimit="4"
           font-weight="400"
           font-style="normal"
           font-family="'Noto Sans'"
           stroke-linecap="butt"
           stroke-width="0.2"
           transform="matrix(10.0599,0,0,-9.65647,487.68,479.751)"
           font-size="35.2778px"
           id="g288">
          <path
             vector-effect="none"
             d="m 25.8094,25.8094 c -14.2541,14.2541 -37.3647,14.2541 -51.6188,0"
             fill-rule="evenodd"
             id="path286" />
        </g>
        <g
           stroke="none"
           fill="none"
           font-weight="400"
           font-style="normal"
           font-family="'Noto Sans'"
           transform="matrix(10.0599,0,0,-9.65647,487.68,479.751)"
           font-size="35.2778px"
           id="g292">
          <path
             vector-effect="none"
             d="m -25.4558,25.4558 -0.3536,0.3536"
             fill-rule="evenodd"
             id="path290" />
        </g>
        <g
           stroke="#000000"
           stroke-opacity="1"
           stroke-linejoin="miter"
           fill="none"
           stroke-miterlimit="4"
           font-weight="400"
           font-style="normal"
           font-family="'Noto Sans'"
           stroke-linecap="butt"
           stroke-width="0.2"
           transform="matrix(10.0599,0,0,-9.65647,487.68,479.751)"
           font-size="35.2778px"
           id="g296">
          <path
             vector-effect="none"
             d="m -25.4558,25.4558 -0.3536,0.3536"
             fill-rule="evenodd"
             id="path294" />
        </g>
        <g
           stroke="none"
           fill="none"
           font-weight="400"
           font-style="normal"
           font-family="'Noto Sans'"
           transform="matrix(10.0599,0,0,-9.65647,487.68,479.751)"
           font-size="35.2778px"
           id="g300">
          <path
             vector-effect="none"
             d="m 25.4558,25.4558 0.3536,0.3536"
             fill-rule="evenodd"
             id="path298" />
        </g>
        <g
           stroke="#000000"
           stroke-opacity="1"
           stroke-linejoin="miter"
           fill="none"
           stroke-miterlimit="4"
           font-weight="400"
           font-style="normal"
           font-family="'Noto Sans'"
           stroke-linecap="butt"
           stroke-width="0.2"
           transform="matrix(10.0599,0,0,-9.65647,487.68,479.751)"
           font-size="35.2778px"
           id="g304">
          <path
             vector-effect="none"
             d="m 25.4558,25.4558 0.3536,0.3536"
             fill-rule="evenodd"
             id="path302" />
        </g>
        <g
           stroke="none"
           fill-opacity="1"
           fill="#ffffff"
           font-weight="400"
           font-style="normal"
           font-family="'Noto Sans'"
           transform="matrix(10.0599,0,0,-9.65647,487.68,479.751)"
           font-size="35.2778px"
           id="g308">
          <path
             vector-effect="none"
             d="m -27.1405,24.7894 c 0.1585,0.2299 0.3716,0.3448 0.6392,0.3448 0.2005,0 0.3557,-0.0662 0.4656,-0.1988 0.1099,-0.1325 0.1649,-0.3301 0.1649,-0.5927 0,-0.1862 -0.0273,-0.3628 -0.0818,-0.5298 -0.0537,-0.1661 -0.1284,-0.3133 -0.224,-0.4417 -0.0956,-0.1275 -0.2072,-0.2282 -0.3347,-0.302 -0.1267,-0.073 -0.2634,-0.1095 -0.4103,-0.1095 -0.2416,0 -0.4165,0.1066 -0.5247,0.3197 l -0.2102,-1.0848 h -0.3473 l 0.5688,2.8994 h 0.3096 l -0.0151,-0.3046 m 0.9035,-0.4693 c 0,0.1828 -0.031,0.315 -0.0931,0.3963 -0.0613,0.0823 -0.1502,0.1234 -0.2668,0.1234 -0.1049,0 -0.2022,-0.0281 -0.2919,-0.0843 -0.089,-0.0563 -0.1666,-0.1334 -0.2328,-0.2316 -0.0655,-0.0981 -0.1171,-0.2097 -0.1548,-0.3347 -0.0369,-0.1242 -0.0554,-0.2555 -0.0554,-0.3939 0,-0.1846 0.0336,-0.3209 0.1007,-0.409 0.0679,-0.0881 0.161,-0.1321 0.2793,-0.1321 0.1359,0 0.2576,0.0491 0.365,0.1472 0.1074,0.099 0.1925,0.2291 0.2554,0.3901 0.0629,0.1619 0.0944,0.3381 0.0944,0.5286"
             fill-rule="evenodd"
             id="path306" />
        </g>
        <g
           stroke="#000000"
           stroke-opacity="1"
           stroke-linejoin="miter"
           fill="none"
           stroke-miterlimit="4"
           font-weight="400"
           font-style="normal"
           font-family="'Noto Sans'"
           stroke-linecap="butt"
           stroke-width="0.2"
           transform="matrix(10.0599,0,0,-9.65647,487.68,479.751)"
           font-size="35.2778px"
           id="g312">
          <path
             vector-effect="none"
             d="m -27.1405,24.7894 c 0.1585,0.2299 0.3716,0.3448 0.6392,0.3448 0.2005,0 0.3557,-0.0662 0.4656,-0.1988 0.1099,-0.1325 0.1649,-0.3301 0.1649,-0.5927 0,-0.1862 -0.0273,-0.3628 -0.0818,-0.5298 -0.0537,-0.1661 -0.1284,-0.3133 -0.224,-0.4417 -0.0956,-0.1275 -0.2072,-0.2282 -0.3347,-0.302 -0.1267,-0.073 -0.2634,-0.1095 -0.4103,-0.1095 -0.2416,0 -0.4165,0.1066 -0.5247,0.3197 l -0.2102,-1.0848 h -0.3473 l 0.5688,2.8994 h 0.3096 l -0.0151,-0.3046 m 0.9035,-0.4693 c 0,0.1828 -0.031,0.315 -0.0931,0.3963 -0.0613,0.0823 -0.1502,0.1234 -0.2668,0.1234 -0.1049,0 -0.2022,-0.0281 -0.2919,-0.0843 -0.089,-0.0563 -0.1666,-0.1334 -0.2328,-0.2316 -0.0655,-0.0981 -0.1171,-0.2097 -0.1548,-0.3347 -0.0369,-0.1242 -0.0554,-0.2555 -0.0554,-0.3939 0,-0.1846 0.0336,-0.3209 0.1007,-0.409 0.0679,-0.0881 0.161,-0.1321 0.2793,-0.1321 0.1359,0 0.2576,0.0491 0.365,0.1472 0.1074,0.099 0.1925,0.2291 0.2554,0.3901 0.0629,0.1619 0.0944,0.3381 0.0944,0.5286"
             fill-rule="evenodd"
             id="path310" />
        </g>
        <g
           stroke="none"
           fill-opacity="1"
           fill="#ffffff"
           font-weight="400"
           font-style="normal"
           font-family="'Noto Sans'"
           transform="matrix(10.0599,0,0,-9.65647,487.68,479.751)"
           font-size="35.2778px"
           id="g316">
          <path
             vector-effect="none"
             d="m -25.4794,23.7714 c 0,0.1829 0.0314,0.3561 0.0943,0.5197 0.063,0.1636 0.1494,0.3087 0.2593,0.4354 0.1107,0.1267 0.2378,0.2261 0.3813,0.2982 0.1434,0.073 0.2957,0.1095 0.4567,0.1095 0.224,0 0.4048,-0.0692 0.5424,-0.2076 0.1376,-0.1376 0.2064,-0.323 0.2064,-0.5562 0,-0.0973 -0.0139,-0.2227 -0.0415,-0.3763 h -1.5227 c -0.0151,-0.0763 -0.0226,-0.1459 -0.0226,-0.2089 0,-0.1703 0.0482,-0.3016 0.1447,-0.3938 0.0973,-0.0915 0.2357,-0.1372 0.4152,-0.1372 0.2341,0 0.4954,0.0713 0.784,0.2139 l -0.0679,-0.346 c -0.266,-0.1083 -0.5223,-0.1624 -0.7689,-0.1624 -0.2827,0 -0.4971,0.0684 -0.643,0.2051 -0.1452,0.1368 -0.2177,0.339 -0.2177,0.6066 m 1.1539,1.0684 c -0.1628,0 -0.3091,-0.0504 -0.4392,-0.151 -0.1292,-0.1007 -0.2202,-0.2341 -0.2731,-0.4002 h 1.1439 c 0.0126,0.052 0.0189,0.099 0.0189,0.1409 0,0.1267 -0.0407,0.2265 -0.1221,0.2995 -0.0805,0.0739 -0.19,0.1108 -0.3284,0.1108"
             fill-rule="evenodd"
             id="path314" />
        </g>
        <g
           stroke="#000000"
           stroke-opacity="1"
           stroke-linejoin="miter"
           fill="none"
           stroke-miterlimit="4"
           font-weight="400"
           font-style="normal"
           font-family="'Noto Sans'"
           stroke-linecap="butt"
           stroke-width="0.2"
           transform="matrix(10.0599,0,0,-9.65647,487.68,479.751)"
           font-size="35.2778px"
           id="g320">
          <path
             vector-effect="none"
             d="m -25.4794,23.7714 c 0,0.1829 0.0314,0.3561 0.0943,0.5197 0.063,0.1636 0.1494,0.3087 0.2593,0.4354 0.1107,0.1267 0.2378,0.2261 0.3813,0.2982 0.1434,0.073 0.2957,0.1095 0.4567,0.1095 0.224,0 0.4048,-0.0692 0.5424,-0.2076 0.1376,-0.1376 0.2064,-0.323 0.2064,-0.5562 0,-0.0973 -0.0139,-0.2227 -0.0415,-0.3763 h -1.5227 c -0.0151,-0.0763 -0.0226,-0.1459 -0.0226,-0.2089 0,-0.1703 0.0482,-0.3016 0.1447,-0.3938 0.0973,-0.0915 0.2357,-0.1372 0.4152,-0.1372 0.2341,0 0.4954,0.0713 0.784,0.2139 l -0.0679,-0.346 c -0.266,-0.1083 -0.5223,-0.1624 -0.7689,-0.1624 -0.2827,0 -0.4971,0.0684 -0.643,0.2051 -0.1452,0.1368 -0.2177,0.339 -0.2177,0.6066 m 1.1539,1.0684 c -0.1628,0 -0.3091,-0.0504 -0.4392,-0.151 -0.1292,-0.1007 -0.2202,-0.2341 -0.2731,-0.4002 h 1.1439 c 0.0126,0.052 0.0189,0.099 0.0189,0.1409 0,0.1267 -0.0407,0.2265 -0.1221,0.2995 -0.0805,0.0739 -0.19,0.1108 -0.3284,0.1108"
             fill-rule="evenodd"
             id="path318" />
        </g>
        <g
           stroke="none"
           fill-opacity="1"
           fill="#ffffff"
           font-weight="400"
           font-style="normal"
           font-family="'Noto Sans'"
           transform="matrix(10.0599,0,0,-9.65647,487.68,479.751)"
           font-size="35.2778px"
           id="g324">
          <path
             vector-effect="none"
             d="m 23.1359,23.5587 c 0,0.1628 0.0449,0.305 0.1347,0.4266 0.0906,0.1217 0.2164,0.216 0.3775,0.2832 0.1619,0.0671 0.3519,0.1006 0.57,0.1006 h 0.4644 l 0.0239,0.1334 c 0,0.1091 -0.0399,0.1926 -0.1196,0.2504 -0.0797,0.0579 -0.195,0.0869 -0.346,0.0869 -0.214,0 -0.4589,-0.0583 -0.7349,-0.175 l 0.0667,0.3272 c 0.2642,0.0948 0.5096,0.1422 0.7361,0.1422 0.2349,0 0.4174,-0.0516 0.5474,-0.1548 0.1309,-0.1023 0.1963,-0.2466 0.1963,-0.4328 0,-0.0806 -0.0151,-0.1997 -0.0453,-0.3574 L 24.7706,23 H 24.461 l 0.0226,0.331 c -0.187,-0.2475 -0.4291,-0.3713 -0.726,-0.3713 -0.1905,0 -0.3419,0.0541 -0.4543,0.1624 -0.1116,0.109 -0.1674,0.2546 -0.1674,0.4366 m 1.495,0.516 h -0.3247 c -0.1434,0 -0.2508,-0.0038 -0.3221,-0.0114 -0.0705,-0.0075 -0.133,-0.0226 -0.1875,-0.0453 -0.0965,-0.0386 -0.1703,-0.0952 -0.2215,-0.1698 -0.0512,-0.0747 -0.0768,-0.159 -0.0768,-0.253 0,-0.1065 0.0332,-0.19 0.0994,-0.2504 0.0671,-0.0604 0.1594,-0.0906 0.2769,-0.0906 0.1787,0 0.3356,0.0675 0.4706,0.2026 0.1351,0.1359 0.2253,0.3163 0.2706,0.5411 l 0.0151,0.0768"
             fill-rule="evenodd"
             id="path322" />
        </g>
        <g
           stroke="#000000"
           stroke-opacity="1"
           stroke-linejoin="miter"
           fill="none"
           stroke-miterlimit="4"
           font-weight="400"
           font-style="normal"
           font-family="'Noto Sans'"
           stroke-linecap="butt"
           stroke-width="0.2"
           transform="matrix(10.0599,0,0,-9.65647,487.68,479.751)"
           font-size="35.2778px"
           id="g328">
          <path
             vector-effect="none"
             d="m 23.1359,23.5587 c 0,0.1628 0.0449,0.305 0.1347,0.4266 0.0906,0.1217 0.2164,0.216 0.3775,0.2832 0.1619,0.0671 0.3519,0.1006 0.57,0.1006 h 0.4644 l 0.0239,0.1334 c 0,0.1091 -0.0399,0.1926 -0.1196,0.2504 -0.0797,0.0579 -0.195,0.0869 -0.346,0.0869 -0.214,0 -0.4589,-0.0583 -0.7349,-0.175 l 0.0667,0.3272 c 0.2642,0.0948 0.5096,0.1422 0.7361,0.1422 0.2349,0 0.4174,-0.0516 0.5474,-0.1548 0.1309,-0.1023 0.1963,-0.2466 0.1963,-0.4328 0,-0.0806 -0.0151,-0.1997 -0.0453,-0.3574 L 24.7706,23 H 24.461 l 0.0226,0.331 c -0.187,-0.2475 -0.4291,-0.3713 -0.726,-0.3713 -0.1905,0 -0.3419,0.0541 -0.4543,0.1624 -0.1116,0.109 -0.1674,0.2546 -0.1674,0.4366 m 1.495,0.516 h -0.3247 c -0.1434,0 -0.2508,-0.0038 -0.3221,-0.0114 -0.0705,-0.0075 -0.133,-0.0226 -0.1875,-0.0453 -0.0965,-0.0386 -0.1703,-0.0952 -0.2215,-0.1698 -0.0512,-0.0747 -0.0768,-0.159 -0.0768,-0.253 0,-0.1065 0.0332,-0.19 0.0994,-0.2504 0.0671,-0.0604 0.1594,-0.0906 0.2769,-0.0906 0.1787,0 0.3356,0.0675 0.4706,0.2026 0.1351,0.1359 0.2253,0.3163 0.2706,0.5411 l 0.0151,0.0768"
             fill-rule="evenodd"
             id="path326" />
        </g>
        <g
           stroke="none"
           fill-opacity="1"
           fill="#ffffff"
           font-weight="400"
           font-style="normal"
           font-family="'Noto Sans'"
           transform="matrix(10.0599,0,0,-9.65647,487.68,479.751)"
           font-size="35.2778px"
           id="g332">
          <path
             vector-effect="none"
             d="m 26.1951,24.7894 c 0.1585,0.2299 0.3716,0.3448 0.6392,0.3448 0.2005,0 0.3557,-0.0662 0.4656,-0.1988 0.1099,-0.1325 0.1649,-0.3301 0.1649,-0.5927 0,-0.1862 -0.0273,-0.3628 -0.0818,-0.5298 -0.0537,-0.1661 -0.1284,-0.3133 -0.224,-0.4417 -0.0957,-0.1275 -0.2072,-0.2282 -0.3348,-0.302 -0.1266,-0.073 -0.2634,-0.1095 -0.4102,-0.1095 -0.2416,0 -0.4165,0.1066 -0.5247,0.3197 l -0.2102,-1.0848 h -0.3473 l 0.5688,2.8994 h 0.3096 l -0.0151,-0.3046 m 0.9035,-0.4693 c 0,0.1828 -0.0311,0.315 -0.0931,0.3963 -0.0613,0.0823 -0.1502,0.1234 -0.2668,0.1234 -0.1049,0 -0.2022,-0.0281 -0.292,-0.0843 -0.0889,-0.0563 -0.1665,-0.1334 -0.2328,-0.2316 -0.0654,-0.0981 -0.117,-0.2097 -0.1548,-0.3347 -0.0369,-0.1242 -0.0553,-0.2555 -0.0553,-0.3939 0,-0.1846 0.0335,-0.3209 0.1006,-0.409 0.068,-0.0881 0.1611,-0.1321 0.2794,-0.1321 0.1359,0 0.2576,0.0491 0.3649,0.1472 0.1074,0.099 0.1926,0.2291 0.2555,0.3901 0.0629,0.1619 0.0944,0.3381 0.0944,0.5286"
             fill-rule="evenodd"
             id="path330" />
        </g>
        <g
           stroke="#000000"
           stroke-opacity="1"
           stroke-linejoin="miter"
           fill="none"
           stroke-miterlimit="4"
           font-weight="400"
           font-style="normal"
           font-family="'Noto Sans'"
           stroke-linecap="butt"
           stroke-width="0.2"
           transform="matrix(10.0599,0,0,-9.65647,487.68,479.751)"
           font-size="35.2778px"
           id="g336">
          <path
             vector-effect="none"
             d="m 26.1951,24.7894 c 0.1585,0.2299 0.3716,0.3448 0.6392,0.3448 0.2005,0 0.3557,-0.0662 0.4656,-0.1988 0.1099,-0.1325 0.1649,-0.3301 0.1649,-0.5927 0,-0.1862 -0.0273,-0.3628 -0.0818,-0.5298 -0.0537,-0.1661 -0.1284,-0.3133 -0.224,-0.4417 -0.0957,-0.1275 -0.2072,-0.2282 -0.3348,-0.302 -0.1266,-0.073 -0.2634,-0.1095 -0.4102,-0.1095 -0.2416,0 -0.4165,0.1066 -0.5247,0.3197 l -0.2102,-1.0848 h -0.3473 l 0.5688,2.8994 h 0.3096 l -0.0151,-0.3046 m 0.9035,-0.4693 c 0,0.1828 -0.0311,0.315 -0.0931,0.3963 -0.0613,0.0823 -0.1502,0.1234 -0.2668,0.1234 -0.1049,0 -0.2022,-0.0281 -0.292,-0.0843 -0.0889,-0.0563 -0.1665,-0.1334 -0.2328,-0.2316 -0.0654,-0.0981 -0.117,-0.2097 -0.1548,-0.3347 -0.0369,-0.1242 -0.0553,-0.2555 -0.0553,-0.3939 0,-0.1846 0.0335,-0.3209 0.1006,-0.409 0.068,-0.0881 0.1611,-0.1321 0.2794,-0.1321 0.1359,0 0.2576,0.0491 0.3649,0.1472 0.1074,0.099 0.1926,0.2291 0.2555,0.3901 0.0629,0.1619 0.0944,0.3381 0.0944,0.5286"
             fill-rule="evenodd"
             id="path334" />
        </g>
      </g>
    </g>
  </g>
</svg>
